<svg xmlns="http://www.w3.org/2000/svg" width="2.8in" height="76.8" data-name="Layer 1" viewBox="0 0 199.1 54.7"><path fill="#232323" d="M30 4.4c-.2.1-26.8 18.1-27 26.7A14.7 14.7 0 0 0 17.9 46 14.8 14.8 0 0 0 30 39.9a14.9 14.9 0 0 0 27-8.8c-.2-8.6-26.8-26.5-27-26.7zm8.9 35.9a11 11 0 0 1-8.9-4.4 11 11 0 0 1-8.9 4.4A10.8 10.8 0 0 1 10 29.5c.1-6.2 19.8-19.2 19.9-19.3.2.1 19.8 13.1 19.9 19.3a10.8 10.8 0 0 1-10.9 10.8z"/><path fill="#232323" d="M38.4 27.3c.1-2.2-1.5-5.1-4.5-5.1A4.5 4.5 0 0 0 30 25a4.5 4.5 0 0 0-4-2.8c-2.9 0-4.5 2.9-4.5 5.1s1 5.5 8.4 9.3c7.5-3.8 8.4-7.1 8.5-9.3z"/><circle cx="13.9" cy="10.6" r="6.3" fill="#231f20"/><circle cx="46" cy="10.6" r="6.3" fill="#231f20"/><path fill="#231f20" d="M63.9 24.2q0-2.9.1-5.8t.3-5.8.8-.8l.5.2a.7.7 0 0 1 .3.5q-.1 2.9-.3 5.8t-.2 5.8 0 1.6.1 2.3.3 2.6a15.2 15.2 0 0 0 .5 2.4 6.3 6.3 0 0 0 .9 1.8 1.5 1.5 0 0 0 1.3.7l1.1-.2.9-.5.9-.6 1-.4.6.2a.9.9 0 0 1 .2.6c0 .2-.2.5-.6.8l-1.4.9-1.5.7-1.1.3a2.9 2.9 0 0 1-2-.7 5.4 5.4 0 0 1-1.4-1.9 12.3 12.3 0 0 1-.8-2.6 26.3 26.3 0 0 1-.4-2.9q-.1-1.4-.1-2.7t0-2.3zm14.7-9.8l.3.3a.7.7 0 0 1 .2.5 1.2 1.2 0 0 1-.3.7 5.1 5.1 0 0 1 2 1.9 10.5 10.5 0 0 1 1.2 2.9 20.4 20.4 0 0 1 .5 3.1q.1 1.6.1 2.8t-.1 2.5a11.1 11.1 0 0 1-.4 2.5 8.3 8.3 0 0 1-.5 1.6 9 9 0 0 1-1 1.7 6.6 6.6 0 0 1-1.3 1.4 2.6 2.6 0 0 1-1.6.6 2.8 2.8 0 0 1-2.4-1.3 9.9 9.9 0 0 1-1.3-3.1 22.2 22.2 0 0 1-.6-3.6q-.2-1.8-.2-2.8t.2-2.9a25.4 25.4 0 0 1 .7-3.9 11.7 11.7 0 0 1 1.5-3.4 2.8 2.8 0 0 1 2.4-1.6h.6zm-1 2.7a2.2 2.2 0 0 1-.2-.7 6.7 6.7 0 0 0-1.4 2.1 13.2 13.2 0 0 0-.8 2.7 21 21 0 0 0-.3 2.8q-.1 1.4-.1 2.6t.1 2.1a17.1 17.1 0 0 0 .4 2.8 10.2 10.2 0 0 0 .9 2.5 1.8 1.8 0 0 0 1.6 1.1 1.9 1.9 0 0 0 1.7-1.1 10.3 10.3 0 0 0 1-2.6 19 19 0 0 0 .5-3q.1-1.5.1-2.2t-.1-2.4a14.5 14.5 0 0 0-.5-2.6 8.5 8.5 0 0 0-1.1-2.4 4.9 4.9 0 0 0-1.8-1.7zm5.6 6.7v-1.2q0-.9.1-1.9t.3-2.2a16 16 0 0 1 .4-2.1 6.6 6.6 0 0 1 .6-1.5 1 1 0 0 1 .9-.6q.8 0 .8.7l-.2 1-.4 2q-.3 1.2-.5 2.6a15.6 15.6 0 0 0-.2 2.6v1.4q0 1 .1 2.2t.3 2.6a22.6 22.6 0 0 0 .5 2.5 8.6 8.6 0 0 0 .7 1.9q.4.7.9.7a1.8 1.8 0 0 0 1.3-.9 11.6 11.6 0 0 0 1.3-2.3q.6-1.4 1.2-3.1t1-3.3L93 22l.4-2 .2-1.1.4-1.8a12.2 12.2 0 0 1 .5-1.6q.3-.7.6-.7t.7.9a18.7 18.7 0 0 1 .8 2.3q.4 1.4.8 3.1l.7 3.3q.3 1.6.5 2.8l.2 1.8v1.2l.8-.6.9-.3h.3l.3.5a1.6 1.6 0 0 1-.3.7l-.6.7-.8.6-.6.4q0 .5.1 1.2t0 1.3a38.1 38.1 0 0 1-.4 5.2 23.8 23.8 0 0 1-1.3 5.3 12 12 0 0 1-2.6 4.1 5.6 5.6 0 0 1-4.1 1.7 2.5 2.5 0 0 1-2.3-1 4.6 4.6 0 0 1-.7-2.5 12.2 12.2 0 0 1 .9-4.5 22.4 22.4 0 0 1 2.3-4.4 31.5 31.5 0 0 1 3.2-3.9 36.4 36.4 0 0 1 3.4-3.2q-.2-3.1-.7-6.2t-1.2-6.2l-.5 2.4q-.4 1.6-.9 3.5t-1.3 4a29.1 29.1 0 0 1-1.5 3.7 12.1 12.1 0 0 1-1.8 2.7 2.7 2.7 0 0 1-2 1.1 1.8 1.8 0 0 1-1.4-.8 7.7 7.7 0 0 1-1.1-2 16.9 16.9 0 0 1-.8-2.7q-.3-1.5-.5-2.9t-.3-2.6-.1-1.7zm7.4 26l1-.3 1-.7.9-.8.7-.8a9.9 9.9 0 0 0 1.6-2.6 18.3 18.3 0 0 0 1-3.1 24.6 24.6 0 0 0 .5-3.3q.1-1.6.1-3.1v-1.5a28.4 28.4 0 0 0-2.8 2.7 27 27 0 0 0-2.6 3.3 18.5 18.5 0 0 0-2 3.8 10.7 10.7 0 0 0-.7 3.8 6.9 6.9 0 0 0 0 .7 5.5 5.5 0 0 0 .2.9 1.8 1.8 0 0 0 .4.7.9.9 0 0 0 .7.3z"/><path fill="#231f20" d="M101.1 30.5a.8.8 0 0 1-.9-.9q0-.3.7-.6l1.7-.5 1.8-.5 1.3-.3v-2q0-1.4.2-3.1.1-1.7.4-3.5a24.6 24.6 0 0 1 .7-3.3 10.1 10.1 0 0 1 1-2.5 1.7 1.7 0 0 1 1.4-1 1.5 1.5 0 0 1 1.2.8 7.3 7.3 0 0 1 .9 2 20.8 20.8 0 0 1 .7 2.6q.3 1.4.4 2.8t.2 2.5c0 .7.1 1.3.1 1.6l1.2-.4 1.3-.2.6.2a1 1 0 0 1 .1.6.7.7 0 0 1-.4.5l-.9.5-1 .4-.7.2q.1 1 .3 2.8t.5 3.7q.3 1.9.7 3.6a7.8 7.8 0 0 0 1 2.5l.9.6a1.1 1.1 0 0 1 .5.8l-.3.5a.7.7 0 0 1-.5.3 1.9 1.9 0 0 1-1.5-.9 8.6 8.6 0 0 1-1.2-2.2 22.6 22.6 0 0 1-.9-3q-.4-1.6-.6-3.2t-.4-2.9-.2-1.9l-2.1.9-2.1.9q0 .4.1 1.9t.1 3.1 0 1.8a13.3 13.3 0 0 1-.2 1.5 4.5 4.5 0 0 1-.3 1.1.6.6 0 0 1-.5.4.7.7 0 0 1-.8-.7 6.4 6.4 0 0 1-.1-1.2q0-1.9.1-3.7t.1-3.7l-1 .3-1.3.4-1.3.3zm8.4-16.3q-.4 0-.8 1.4a26 26 0 0 0-.7 3.5q-.3 2-.4 4.2t-.2 3.7l2-.9 2-.9-.2-3.4-.2-1.7q-.1-1.2-.3-2.6a21.5 21.5 0 0 0-.5-2.4q-.3-.9-.7-.9zm8.2 10q0-2.9.1-5.8t.3-5.8.8-.8l.5.2a.7.7 0 0 1 .3.5q-.1 2.9-.3 5.8t-.2 5.8 0 1.6.1 2.3.3 2.6a15.2 15.2 0 0 0 .5 2.4 6.3 6.3 0 0 0 .9 1.8 1.5 1.5 0 0 0 1.3.7l1.1-.2.9-.5.9-.6 1-.4.6.2a.9.9 0 0 1 .2.6c0 .2-.2.5-.6.8l-1.4.9-1.5.7-1.1.3a2.9 2.9 0 0 1-2-.7 5.4 5.4 0 0 1-1.4-1.9 12.3 12.3 0 0 1-.8-2.6 26.3 26.3 0 0 1-.4-2.9q-.1-1.4-.1-2.7t0-2.3zm16.1-8.4a.6.6 0 0 1 .3-.5l.6-.3a1 1 0 0 1 .7.6 4.6 4.6 0 0 1 .3 1.3 13.9 13.9 0 0 1 .1 1.4 10.7 10.7 0 0 0 0 1.2 16.6 16.6 0 0 1 .5-1.8 8.9 8.9 0 0 1 .9-1.9 5.8 5.8 0 0 1 1.3-1.5 2.6 2.6 0 0 1 1.7-.6 1.8 1.8 0 0 1 1.3.5 3.9 3.9 0 0 1 .8 1.3 6.5 6.5 0 0 1 .4 1.6 13 13 0 0 1 .1 1.5 16.5 16.5 0 0 1-1.3 6.5 52.3 52.3 0 0 1-3 6l1.4.5 2.3.8 2.7 1 2.6 1.1 1.9 1q.8.5.8.8a.6.6 0 0 1-.3.6l-.7.2-5.1-2.2-5.2-2-.6-.2-.8-.3-.7-.4a.6.6 0 0 1-.3-.5l.7-1.3a29.8 29.8 0 0 0 1.5-3 36 36 0 0 0 1.5-4.1 15.5 15.5 0 0 0 .7-4.6v-.7a8 8 0 0 0-.2-1 4.3 4.3 0 0 0-.3-.9c-.1-.3-.3-.4-.5-.4a1.5 1.5 0 0 0-1.2.8 8.5 8.5 0 0 0-1 2.1 26.1 26.1 0 0 0-.7 2.8q-.3 1.5-.5 3t-.3 2.6-.1 1.7q0 2.1.1 4.1t.1 4.1a.9.9 0 0 1-.8.6l-.5-.2-.3-.4q0-5.2-.5-10.3t-.4-10.6z"/><path fill="#231f20" d="M147.3 28.8h-.1l-.3-.6.3-.6v-2a13.6 13.6 0 0 1 .3-2.5 6.1 6.1 0 0 1 .9-2.1 1.9 1.9 0 0 1 1.7-.9 2.2 2.2 0 0 1 1.4.5 5.2 5.2 0 0 1 1.2 1.3 7.5 7.5 0 0 1 .8 1.7 5.4 5.4 0 0 1 .3 1.5 5.7 5.7 0 0 1-.2 1.5 7.1 7.1 0 0 1-.7 1.6 4.4 4.4 0 0 1-1.1 1.3 2.4 2.4 0 0 1-1.5.5l-1.2-.3.3 1.4a14.4 14.4 0 0 0 .6 1.8 6.7 6.7 0 0 0 .9 1.5 1.5 1.5 0 0 0 1.2.7 1.2 1.2 0 0 0 1-.5l.7-1 .6-1a.9.9 0 0 1 .7-.5q.8 0 .8.7a2.5 2.5 0 0 1-.4 1.3 6.2 6.2 0 0 1-1 1.2l-1.2 1a2.5 2.5 0 0 1-1.3.4 2.9 2.9 0 0 1-2.2-.9 7.1 7.1 0 0 1-1.4-2.3 15.7 15.7 0 0 1-.8-2.7q-.3-1.4-.5-2.4zm2.7-7a1.6 1.6 0 0 0-.7.9 7 7 0 0 0-.4 1.4 11.7 11.7 0 0 0-.1 1.5v1.2a2.8 2.8 0 0 0 .2 1.2 1 1 0 0 0 1 .5 1.3 1.3 0 0 0 1-.4 2.5 2.5 0 0 0 .6-.9 4.8 4.8 0 0 0 .3-1.1 8.5 8.5 0 0 0 .1-1 6.2 6.2 0 0 0-.1-1 4.8 4.8 0 0 0-.3-1.1 2.8 2.8 0 0 0-.6-.9 1.2 1.2 0 0 0-1-.3zm11.4-2.7l.8.2.7.4.2.5a.7.7 0 0 1-.2.6l-.6.2h-1.2a1.9 1.9 0 0 0-1.3.5 5.5 5.5 0 0 0-1 1.3 7.4 7.4 0 0 0-.7 1.6 4.9 4.9 0 0 0-.2 1.4 1.2 1.2 0 0 0 .6 1.1l1.5.6 2 .5 2 .7a4.4 4.4 0 0 1 1.5 1.1 2.9 2.9 0 0 1 .6 1.9 4.6 4.6 0 0 1-.5 2.1 6.3 6.3 0 0 1-1.4 1.8 6.6 6.6 0 0 1-1.9 1.2 5.5 5.5 0 0 1-2.1.4 4.5 4.5 0 0 1-2.1-.4 3 3 0 0 1-1.2-1.1 4.1 4.1 0 0 1-.5-1.6 16 16 0 0 1-.1-2q0-.9.8-.9c.4 0 .7.2.7.7s.1 1 .2 1.6a4.5 4.5 0 0 0 .4 1.6 1.5 1.5 0 0 0 1.5.7l1.7-.3a4.4 4.4 0 0 0 1.5-.9 4.5 4.5 0 0 0 1-1.3 3.5 3.5 0 0 0 .4-1.6 1.5 1.5 0 0 0-.6-1.3l-1.5-.7-2-.5-2-.6a4.3 4.3 0 0 1-1.5-1.1 2.8 2.8 0 0 1-.6-1.9 5.2 5.2 0 0 1 .4-2 7.9 7.9 0 0 1 1.2-2 8.1 8.1 0 0 1 1.6-1.5 3.2 3.2 0 0 1 1.9-1zm11.9 3.5a.6.6 0 0 1-.3.5l-.5.3a.8.8 0 0 1-.8-.5 4.3 4.3 0 0 1-.2-1.1c0-.4-.1-.7-.1-1.1a.5.5 0 0 0-.5-.5 1.1 1.1 0 0 0-.9.6 5.2 5.2 0 0 0-.7 1.4 16.4 16.4 0 0 0-.5 1.9q-.2 1-.3 2t-.1 1.8v2.5a18.9 18.9 0 0 0 .2 2.1 8.1 8.1 0 0 0 .5 1.9c.2.5.5.8.9.8a1.9 1.9 0 0 0 1.3-.8l1.4-1.9 1.2-1.9q.5-.8.9-.8l.5.2a.8.8 0 0 1 .2.5 3.6 3.6 0 0 1-.6 1.5 16.8 16.8 0 0 1-1.4 2.1 13.5 13.5 0 0 1-1.7 1.8 2.4 2.4 0 0 1-3.6 0 5.3 5.3 0 0 1-1.1-1.9 9.4 9.4 0 0 1-.5-2.4q-.1-1.3-.1-2.2t0-1.6.2-2.3.4-2.5a10.7 10.7 0 0 1 .7-2.3A5.5 5.5 0 0 1 169 19a2.3 2.3 0 0 1 1.7-.7 1.7 1.7 0 0 1 1.2.4 3 3 0 0 1 .7 1 4.4 4.4 0 0 1 .3 1.3 12.1 12.1 0 0 1 .4 1.6zm3.6-2.2q.4 0 .7.8a12.4 12.4 0 0 1 .4 2.1q.2 1.3.3 2.9t.3 3.1q.2 1.5.5 2.8a5.9 5.9 0 0 0 .7 2 5.5 5.5 0 0 0 1-2.2q.4-1.6.7-3.6t.5-3.7q.2-1.8.2-2.6v-1.7a5.7 5.7 0 0 1 .1-1 2.5 2.5 0 0 1 .3-.8.6.6 0 0 1 .5-.3l.5.2.4.4q0 2.3-.2 4.5t-.2 4.5 0 1.9.1 2.3a22 22 0 0 0 .3 2.2 5.3 5.3 0 0 0 .6 1.7l.6.8a1.3 1.3 0 0 1 .4.8.9.9 0 0 1-.2.6.7.7 0 0 1-.6.3 1.4 1.4 0 0 1-1.2-.8 8.1 8.1 0 0 1-.8-1.9 19.4 19.4 0 0 1-.5-2.1q-.2-1.1-.2-1.5a12.8 12.8 0 0 1-.8 2.2 4.3 4.3 0 0 1-1.5 1.7 2.3 2.3 0 0 1-1.7-1.5 12.8 12.8 0 0 1-1-3 30 30 0 0 1-.5-3.4q-.1-1.7-.2-2.5t-.3-2.3a12.7 12.7 0 0 1-.2-2.3.7.7 0 0 1 .3-.5zm9.1 8.4h-.1l-.3-.6.3-.6v-2a13.6 13.6 0 0 1 .3-2.5 6.2 6.2 0 0 1 .9-2.1 1.9 1.9 0 0 1 1.7-.9 2.2 2.2 0 0 1 1.4.5 5.2 5.2 0 0 1 1.2 1.3 7.5 7.5 0 0 1 .8 1.7 5.3 5.3 0 0 1 .3 1.5 5.7 5.7 0 0 1-.2 1.5 7.1 7.1 0 0 1-.7 1.6 4.4 4.4 0 0 1-1.1 1.3 2.4 2.4 0 0 1-1.5.5l-1.2-.3.3 1.4a14.4 14.4 0 0 0 .6 1.8 6.7 6.7 0 0 0 .9 1.5 1.5 1.5 0 0 0 1.2.7 1.2 1.2 0 0 0 1-.5l.7-1 .6-1a.9.9 0 0 1 .7-.5q.8 0 .8.7a2.5 2.5 0 0 1-.4 1.3 6.3 6.3 0 0 1-1 1.2l-1.2 1a2.5 2.5 0 0 1-1.3.4 2.9 2.9 0 0 1-2.2-.9 7.1 7.1 0 0 1-1.4-2.3 15.7 15.7 0 0 1-.8-2.7l-.5-2.4zm2.7-7a1.6 1.6 0 0 0-.7.9 6.9 6.9 0 0 0-.4 1.4 11.9 11.9 0 0 0-.1 1.5v1.2a2.8 2.8 0 0 0 .2 1.2 1 1 0 0 0 1 .5 1.3 1.3 0 0 0 1-.4 2.5 2.5 0 0 0 .6-.9 4.8 4.8 0 0 0 .3-1.1 8.5 8.5 0 0 0 .1-1 6.1 6.1 0 0 0-.1-1 4.9 4.9 0 0 0-.3-1.1 2.8 2.8 0 0 0-.6-.9 1.2 1.2 0 0 0-1-.3z"/></svg>