<svg xmlns="http://www.w3.org/2000/svg"><symbol id="drop-down" viewBox="0 0 76.3 47.7"><path fill="#303030" d="M38.7 45.3l36-43.1h-72l36 43.1z"/></symbol><symbol id="error" viewBox="0 0 197.5 171.5"><path d="M86.6 9.7L4.4 147.4a14.2 14.2 0 0 0 12.2 21.4h164.3a14.2 14.2 0 0 0 12.2-21.4L110.9 9.7a14.2 14.2 0 0 0-24.3 0z"/><path fill="#fff" d="M90.1 28.8l4.4 88.3s.3 2.5 1.8 2.5h7.1a1.6 1.6 0 0 0 1.3-1.7c0-1.6 4.2-87.5 4.2-87.5s.5-2.8-2.2-2.8h-14s-2.6-.3-2.6 1.2z"/><rect width="22.9" height="22.88" x="88" y="128.5" fill="#fff" rx="11.4" ry="11.4"/></symbol><symbol id="minus" viewBox="0 0 58.4 59.4"><path d="M29.2 1.1a28.5 28.5 0 1 0 28.5 28.5A28.5 28.5 0 0 0 29.2 1.1zm16.6 34.7H12.6V23.4h33.2z"/></symbol><symbol id="plus" viewBox="0 0 60 60.5"><path d="M30 .5a29.7 29.7 0 1 0 29.8 29.7A29.7 29.7 0 0 0 30 .5zm17.3 36.2H36.5v10.8H23.6V36.7H12.8V23.8h10.8V13h12.9v10.8h10.8z"/></symbol><symbol id="toggle" viewBox="0 0 227.7 189.4"><path fill="#231f20" d="M5.3 6.4h216v36.17H5.3zm0 70.2h216v36.17H5.3zm0 70.2h216v36.17H5.3z"/></symbol></svg>