<svg id="Layer_1" data-name="Layer 1" xmlns="http://www.w3.org/2000/svg" width="3.6in" height="3.6in" viewBox="0 0 256 256"><title>256pxlogo</title><path d="M128,20.8h0C127,21.5,1.9,106,1.2,146.3s32,70,70.1,70.1,56.5-28.6,56.7-28.8,18.7,28.9,56.7,28.8,70.8-29.7,70.1-70.1S129,21.5,128,20.8Zm41.9,168.6A51.5,51.5,0,0,1,128,168.6a51.5,51.5,0,0,1-41.9,20.9C58,189.4,33.8,168,34.3,138.7S127.2,48.2,128,47.7h0c.7.5,93.2,61.7,93.7,90.9S198,189.4,169.9,189.5Z" fill="#232323"/><path d="M167.6,128.5c.2-10.4-7.3-24.2-20.9-24.1s-18,11.6-18.6,13.1c-.6-1.4-5.8-13-18.6-13.1s-21.2,13.7-20.9,24.1,4.7,25.8,39.5,43.7h.1C162.9,154.3,167.3,138.9,167.6,128.5Z" fill="#232323"/><circle cx="52.5" cy="49.7" r="29.6" fill="#231f20"/><circle cx="203.5" cy="49.7" r="29.6" fill="#231f20"/></svg>