<svg xmlns="http://www.w3.org/2000/svg"><symbol id="twitter" viewBox="0 0 48 47.5"><path fill="#303030" d="M39.9.9H8a6.9 6.9 0 0 0-6.9 6.9v31.8A6.9 6.9 0 0 0 8 46.5h31.9a6.9 6.9 0 0 0 6.9-6.9V7.8A6.9 6.9 0 0 0 39.9.9zm-2 15.8a20.1 20.1 0 0 1-9.3 17.9c-11.4 7-21.7-.1-21.7-.1a13.4 13.4 0 0 0 10.5-3 7.1 7.1 0 0 1-6.6-4.9c3.3.3 3.1-.2 3.1-.2-6-1.6-5.6-7-5.6-7 2.4 1.2 3.1.8 3.1.8a7 7 0 0 1-2.1-9.4c6.6 7.9 14.6 7.4 14.6 7.4a7.1 7.1 0 0 1 4.6-8.2 7.2 7.2 0 0 1 7.5 1.9 14 14 0 0 0 4.5-1.7 6.7 6.7 0 0 1-3.1 3.9 14.2 14.2 0 0 0 4-1.1c-.4 1.2-3.5 3.7-3.5 3.7z"/></symbol><symbol id="facebook" viewBox="0 0 47.5 47.3"><path fill="#303030" d="M1.1 6.2v34.3s.1 5.4 6.6 5.8h15.9V29.9h-3.8s-1.4.2-1.3-1v-5.4s.2-.8.8-.8h4.5v-6s0-7.9 7.9-8.1H37a1.2 1.2 0 0 1 .9 1.3v4.3a1.2 1.2 0 0 1-1.3.8h-3s-2.7 0-2.8 2.4v5.4h6.3s.9.2.7 1.7l-.5 4.8s0 .7-1.1.7h-5.5v16.3l10.6-.2a6 6 0 0 0 5.2-6.2V6.2A5.8 5.8 0 0 0 41.2.7H6.6S2.1.8 1.1 6.2z"/></symbol></svg>